<svg fill="#000000" xmlns="http://www.w3.org/2000/svg" viewBox="0 0 50 50" width="100px" height="100px"><path fill="none" d="M0 0H50V50H0z"/><path d="M14.403 49.001C14.403 49.001 14.403 49.001 14.403 49.001 10.199 49 8 46.058 8 43.152c0-3.214 1.772-4.613 3.824-6.234.864-.683 1.844-1.456 2.817-2.466.807-.837 1.532-1.7 2.233-2.535C18.999 29.389 21.004 27 24.205 27c3.557 0 5.303 2.622 7.151 5.398.642.964 1.306 1.96 2.073 2.895.924 1.124 2.425 1.788 3.877 2.431 2.2.974 4.693 2.077 4.693 4.978 0 3.796-2.387 5.721-7.094 5.721-1.784 0-3.461-.319-5.082-.628-1.66-.316-3.376-.644-5.261-.644-1.732 0-3.094.412-4.535.849C18.403 48.492 16.723 49.001 14.403 49.001zM32.251 22C27.148 22 26 13.672 26 10.755 26 7.084 28.695 2 33.757 2 36.374 2 40 4.979 40 10.574 40 16.113 37.284 22 32.251 22zM17.967 21C13.713 21 11 14.411 11 10.966 11 6.62 13.51 2 18.162 2 21.217 2 24 5.711 24 9.787 24 19.055 20.719 21 17.967 21zM6.551 36C2.552 36 0 31.053 0 27.646 0 22.868 3.397 18 6.732 18 9.895 18 13 21.815 13 25.703 13 30.765 10.588 36 6.551 36zM41.408 36C41.407 36 41.408 36 41.408 36c-.387 0-.775-.045-1.154-.134-1.677-.392-2.988-1.462-3.69-3.012-1.004-2.215-.667-5.102.949-8.127 2.653-4.965 5.757-7.297 8.706-6.61 1.135.268 2.097 1.091 2.785 2.383 1.162 2.18 1.32 5.304.393 7.772C47.599 33.039 44.538 36 41.408 36z"/></svg>