<svg fill="#000000" xmlns="http://www.w3.org/2000/svg" viewBox="0 0 50 50" width="100px" height="100px"><path fill="none" stroke="#000000" stroke-linecap="round" stroke-linejoin="round" stroke-miterlimit="10" stroke-width="2" d="M34,22v-9c0-1.657,1.343-3,3-3h0c1.657,0,3,1.343,3,3v28c0,4.418-3.582,8-8,8h-8.08c-2.473,0-4.807-1.144-6.322-3.098L6.025,30.975c-1.367-1.367-1.367-3.583,0-4.95c1.367-1.367,3.583-1.367,4.95,0L16,32V7.923C16,6,17.599,5,19,5s3,1,3,3v14"/><path fill="none" stroke="#000000" stroke-linecap="round" stroke-miterlimit="10" stroke-width="2" d="M33.821,36.672L28,42.493l-5.821-5.821C21.453,35.965,21,34.981,21,33.889C21,31.741,22.741,30,24.889,30c1.278,0,2.402,0.625,3.111,1.577C28.709,30.625,29.833,30,31.111,30C33.259,30,35,31.741,35,33.889C35,34.981,34.547,35.965,33.821,36.672z"/><path fill="none" stroke="#000000" stroke-linecap="round" stroke-linejoin="round" stroke-miterlimit="10" stroke-width="2" d="M34 22V6c0-1.657-1.343-3-3-3h0c-1.657 0-3 1.343-3 3v16M28 22V4c0-1.657-1.343-3-3-3h0c-1.657 0-3 1.343-3 3v18"/></svg>