<svg fill="#000000" xmlns="http://www.w3.org/2000/svg" viewBox="0 0 128 128" width="128px" height="128px"><path d="M39.7,127h48.7c6.4,0,12-4.8,12.9-11.2l3.4-23.8h2.4c1.7,0,3-1.3,3-3V77c0-1.7-1.3-3-3-3h-2.5L101,42.6C100.2,36,94.7,31,88,31H40c-6.6,0-12.2,5-12.9,11.6L23.5,74H21c-1.7,0-3,1.3-3,3v12c0,1.7,1.3,3,3,3h2.4l3.4,23.8C27.7,122.2,33.2,127,39.7,127z M80,103.1c0,1.7-1.3,3-3,3H51c-1.7,0-3-1.3-3-3V64c0-1.1,0.9-2,2-2h28c1.1,0,2,0.9,2,2V103.1z M104,80v6H86v-6H104z M33,43.2c0.4-3.5,3.4-6.2,7-6.2H88c3.6,0,6.6,2.7,7,6.2L98.4,74H86V64c0-4.4-3.6-8-8-8H50c-4.4,0-8,3.6-8,8v10H29.6L33,43.2z M24,86v-6h18v6H24z"/></svg>