<svg fill="#000000" xmlns="http://www.w3.org/2000/svg" viewBox="0 0 128 128" width="128px" height="128px"><path d="M97.3 10l8.5 37.6c.3 1.4 1.6 2.3 2.9 2.3.2 0 .4 0 .7-.1 1.6-.4 2.6-2 2.3-3.6l-9.6-42.9c-.2-1.1-1-1.9-2.1-2.2-1-.3-2.2 0-3 .8l-4.3 4.3C89.5 9.3 85.4 11 81 11s-8.5-1.7-11.5-4.8l-4.3-4.3c-.8-.8-1.9-1.1-3-.8-1.1.3-1.9 1.2-2.1 2.2l-9.6 42.9c-.4 1.6.7 3.2 2.3 3.6 1.6.4 3.2-.7 3.6-2.3L64.7 10l.5.5C69.4 14.7 75 17 81 17s11.6-2.3 15.8-6.5L97.3 10zM39.7 58.9v12c0 1.7 1.3 3 3 3h7l6.1 50.5c.2 1.5 1.5 2.6 3 2.6h45.1c0 0 0 0 .1 0 0 0 0 0 0 0 6.3 0 12.2-2.8 16.1-7.7 3.9-4.9 5.4-11.3 4-17.4l-4.4-19.7c-.4-1.6-2-2.6-3.6-2.3-1.6.4-2.6 2-2.3 3.6l4.4 19.7c1 4.4-.1 8.8-2.8 12.3-2.1 2.6-4.9 4.4-8.1 5.1l5.7-46.7h7c1.7 0 3-1.3 3-3v-12c0-1.7-1.3-3-3-3H42.7C41.1 55.9 39.7 57.2 39.7 58.9zM45.7 61.9H117v6H45.7V61.9z"/><path d="M71 31A3 3 0 1 0 71 37 3 3 0 1 0 71 31zM91 31A3 3 0 1 0 91 37 3 3 0 1 0 91 31zM14.1 127c7.3 0 20.7 0 29 0 3.8 0 6.7-3.3 6.2-7-.2-1.4-.8-2.7-1.8-3.6-1.5-1.4-2.6-3.1-3.3-5-.9-2.6-1.1-5.4-.5-8.2l4.4-19.5c.4-1.6-.5-3.3-2.1-3.7-1.7-.5-3.4.6-3.7 2.2l-4.4 19.7c-.9 3.9-.6 7.9.7 11.5.8 2.2 2 4.1 3.5 5.9.6.7.1 1.7-.7 1.7H13.9c-2.5 0-4.8-1.9-4.9-4.4-.1-1.5.6-3 1.8-4 1.1-.9 2.6-1.2 4-.9l11.9 2.8c1.8.4 3.6-.9 3.7-2.8.1-1.5-1-2.7-2.4-3l-10.5-2.4c-4.2-1-7.7-.4-10.3 1.7-2.7 2.2-4.3 5.5-4.1 9C3.3 122.6 8.3 127 14.1 127z"/></svg>