<svg fill="#000000" xmlns="http://www.w3.org/2000/svg" viewBox="0 0 50 50" width="100px" height="100px"><path d="M25,45c-1.626,0-3-1.374-3-3c0-2.39,1.881-4.517,4.191-4.928c0.79-3.596,0.166-5.001-0.613-6.753	C24.875,28.737,24,26.768,24,23v-2.199c-1.831-0.476-6-1.98-6-5.801c0-0.379,0.214-0.725,0.553-0.895	c1.572-0.786,2.488-1.93,3.375-3.036c1.141-1.424,2.318-2.894,4.644-3.055l3.722-3.722C30.644,3.941,31.201,3.901,31.6,4.2	C31.779,4.335,36,7.597,36,16c0,2.219,1.597,4.34,3.446,6.796C41.921,26.082,45,30.172,45,36c0,6.375-4.271,8.903-6.964,8.999L25,45	z M20.059,15.561c0.566,2.651,5.059,3.445,5.107,3.453C25.646,19.096,26,19.512,26,20v3c0,3.344,0.715,4.952,1.406,6.508	c0.904,2.034,1.759,3.956,0.563,8.734C27.858,38.688,27.459,39,27,39c-1.57,0-3,1.43-3,3c0,0.514,0.486,1,1,1h13	c1.271-0.046,5-1.433,5-7c0-5.16-2.737-8.795-5.151-12.001C35.869,21.371,34,18.888,34,16c0-5.511-1.953-8.438-2.986-9.6	l-3.307,3.307C27.52,9.895,27.266,10,27,10c-1.58,0-2.291,0.795-3.512,2.32C22.621,13.403,21.649,14.615,20.059,15.561z"/><path d="M41.897,45H38c-0.553,0-1-0.447-1-1s0.447-1,1-1h3.897c0.596-0.004,5.853-0.206,5.853-6c0-3.867-1.049-5.989-1.975-7.861	c-0.688-1.391-1.337-2.705-1.337-4.389c0-4.078,2.995-5.586,3.123-5.649c0.496-0.241,1.096-0.036,1.337,0.46	c0.242,0.496,0.036,1.095-0.46,1.337c-0.073,0.038-2,1.058-2,3.851c0,1.216,0.499,2.226,1.13,3.503	c0.973,1.966,2.182,4.413,2.182,8.747C49.75,43.328,44.613,45,41.897,45z"/><path d="M19.42,26.9c-0.36,1.09-1.38,1.79-2.48,1.79c-0.2,0-0.41-0.03-0.62-0.08l-6.56-1.64c-0.13-0.03-0.25-0.09-0.36-0.17L1.67,21	H0v-2h2c0.22,0,0.43,0.07,0.6,0.2l7.84,5.88l6.37,1.59c0.3,0.08,0.61-0.1,0.71-0.39c0.06-0.17,0.04-0.33-0.04-0.48	c-0.07-0.15-0.2-0.25-0.36-0.3l-4.9-1.4c-0.49-0.14-0.93-0.4-1.29-0.76l-1.3-1.3c-0.98-0.98-1.74-2.2-2.18-3.52l-0.4-1.2	c-0.13-0.4,0-0.84,0.32-1.1c0.33-0.26,0.79-0.29,1.14-0.08l3.99,2.39c0.2,0.13,0.46,0.09,0.63-0.08c0.14-0.14,0.16-0.3,0.15-0.38	c0-0.09-0.03-0.25-0.18-0.38l-2.94-2.52C8.53,13.77,6.45,13,4.3,13H0v-2h4.3c2.62,0,5.17,0.94,7.16,2.65l2.94,2.52	c0.54,0.46,0.86,1.12,0.88,1.82c0.03,0.7-0.24,1.38-0.73,1.88c-0.82,0.82-2.09,0.97-3.08,0.38l-1.4-0.84	c0.28,0.44,0.6,0.85,0.97,1.22l1.3,1.3c0.12,0.12,0.27,0.2,0.43,0.25l4.9,1.4c0.69,0.2,1.25,0.65,1.58,1.29	C19.59,25.5,19.65,26.22,19.42,26.9z"/></svg>