<?xml version="1.0" encoding="UTF-8"?>
<svg enable-background="new 0 0 500 500" version="1.1" viewBox="0 0 500 500" xml:space="preserve" xmlns="http://www.w3.org/2000/svg">
<path d="m189.1 326.4s-6.4-121.6 123.5-142.1c0 0 17.1-17.5 23-21.4 0 0 3.6-17 0-19s-12.3-40.4-3.1-43.9 13.1 13.5 25.7 19c0 0 11.8-3.3 19 1.2 0 0 26.5-25.5 28.9-20.7s-9.9 39-10.9 48.2c-0.6 5.1-8.9 15.2-11.9 28.8-2.4 10.9 2.2 21.3 2.2 21.3s3.6 17.4 0.8 25.4c-2.8 7.9-35.6 45.1-38.4 51.1-2.8 5.9 2.6 59.9 2.6 59.9s17.5-2.7 12.6 12.2c0 0-1.6 1.5-4.7 0 0 0-2 8.3-24.8 3.1 0 0-15.7-62.7-21.3-62.7-5.5 0-23.3 44.8-38.2 52.1 0 0 31.5 1.1 45-2.3 0 0 17.3 3.8 5.2 17.2 0 0-102.9 4.8-118.7-5.6s-87 4.9-76.9 29.2 45.7 20.2 45.7 20.2 8.9 4.8 0 8.9c-8.9 4.2-54.1 8.3-59.7-32.1s56.3-45.4 74.4-48z"/>
</svg>
