<svg xmlns="http://www.w3.org/2000/svg" viewBox="0 0 64 64" width="96px" height="96px"><path fill="#fff" d="M28.45 8L28.38 8 28.42 7.97z"/><linearGradient id="DyjLX2buuGbg2Z6ycA~gxa" x1="41.535" x2="41.535" y1="31.26" y2="54" gradientUnits="userSpaceOnUse" spreadMethod="reflect"><stop offset="0" stop-color="#6dc7ff"/><stop offset="1" stop-color="#e6abff"/></linearGradient><path fill="url(#DyjLX2buuGbg2Z6ycA~gxa)" d="M53,42.5C53,48.85,47.85,54,41.5,54c-5.93,0-10.82-4.49-11.43-10.26 c0.78,0.17,1.6,0.26,2.43,0.26C38.85,44,44,38.85,44,32.5c0-0.42-0.02-0.83-0.07-1.24C49.11,32.37,53,36.98,53,42.5z"/><linearGradient id="DyjLX2buuGbg2Z6ycA~gxb" x1="33.12" x2="33.12" y1="6.97" y2="59" gradientUnits="userSpaceOnUse" spreadMethod="reflect"><stop offset="0" stop-color="#1a6dff"/><stop offset="1" stop-color="#c822ff"/></linearGradient><path fill="url(#DyjLX2buuGbg2Z6ycA~gxb)" d="M51.29,29.2l1.15-1.84c0.42-0.68,0.67-1.46,0.73-2.25l0.81-10.42c0.1-1.3-0.3-2.57-1.13-3.57 L49.44,7h-2.6l4.47,5.39c0.5,0.6,0.74,1.37,0.68,2.15l-0.81,10.41c-0.04,0.48-0.19,0.94-0.44,1.35l-1.14,1.82 c-1.82-1.02-3.87-1.71-6.07-1.98c-0.39-0.73-0.84-1.43-1.37-2.08L28.45,7l-0.03-0.03L28.38,7l-1.52,1.22L40.6,25.31 c1.71,2.13,2.48,4.69,2.38,7.22l-8.41-10.42c-1.02-1.27-2.89-1.48-4.17-0.47l-8.27,6.56c-0.63,0.49-1.02,1.21-1.11,2 c-0.09,0.8,0.14,1.58,0.64,2.21l8.4,10.39c-2.5-0.46-4.84-1.76-6.55-3.89L9.8,21.86l-1.56,1.25l13.71,17.06 c0.88,1.09,1.92,2.01,3.07,2.76C25.25,51.83,32.55,59,41.5,59C50.6,59,58,51.6,58,42.5C58,37.05,55.38,32.21,51.29,29.2z M23.22,31.15c-0.17-0.21-0.24-0.46-0.21-0.73c0.03-0.26,0.16-0.49,0.36-0.66l8.27-6.55c0.42-0.33,1.04-0.26,1.38,0.16l9.53,11.81 c-0.61,2.07-1.83,3.98-3.66,5.43c-1.82,1.45-3.96,2.22-6.13,2.36L23.22,31.15z M41.5,57c-7.49,0-13.67-5.71-14.42-13.01 c1.55,0.65,3.24,1.01,4.98,1.01c0.07,0,0.14-0.01,0.21-0.01c0.01,0,0.03,0.01,0.04,0.01c0.03,0,0.06-0.01,0.09-0.01 c2.8-0.08,5.54-1.06,7.74-2.81c2.7-2.15,4.4-5.23,4.78-8.65c0.2-1.79,0.02-3.56-0.5-5.23C51.12,29.65,56,35.51,56,42.5 C56,50.5,49.5,57,41.5,57z"/></svg>